<?xml version="1.0" encoding="UTF-8"?>
<svg width="821px" height="821px" viewBox="0 0 821 821" version="1.1" xmlns="http://www.w3.org/2000/svg" xmlns:xlink="http://www.w3.org/1999/xlink">
    <title>01</title>
    <g id="Icon" stroke="none" stroke-width="1" fill="none" fill-rule="evenodd">
        <g id="AppIcon" transform="translate(-101, -102)" fill="color(display-p3 1.000 1.000 1.000)">
            <g id="Shape" transform="translate(101.9018, 102.4512)">
                <path d="M410,0 C636.437,0 820,183.563 820,410 C820,636.437 636.437,820 410,820 C183.563,820 0,636.437 0,410 C0,183.563 183.563,0 410,0 Z M314.03905,495.844732 C301.861095,495.844732 290.856715,499.68075 281.025908,507.352787 C271.195102,515.024823 263.388285,525.274052 257.605457,538.100472 C251.82263,550.926893 248.931216,565.117396 248.931216,580.671983 C248.931216,596.362658 251.82263,610.670645 257.605457,623.595943 C263.388285,636.521241 271.195102,646.819908 281.025908,654.491945 C290.856715,662.163982 301.861095,666 314.03905,666 C326.217004,666 337.221384,662.163982 347.052191,654.491945 C356.882997,646.819908 364.672806,636.521241 370.421617,623.595943 C376.170428,610.670645 379.044833,596.362658 379.044833,580.671983 C379.044833,565.117396 376.170428,550.926893 370.421617,538.100472 C364.672806,525.274052 356.882997,515.024823 347.052191,507.352787 C337.221384,499.68075 326.217004,495.844732 314.03905,495.844732 Z M505.994903,495.844732 C493.816949,495.844732 482.812568,499.68075 472.981762,507.352787 C463.150955,515.024823 455.344138,525.274052 449.561311,538.100472 C443.778483,550.926893 440.88707,565.117396 440.88707,580.671983 C440.88707,596.362658 443.778483,610.670645 449.561311,623.595943 C455.344138,636.521241 463.150955,646.819908 472.981762,654.491945 C482.812568,662.163982 493.816949,666 505.994903,666 C518.172857,666 529.160229,662.163982 538.957019,654.491945 C548.753809,646.819908 556.543618,636.521241 562.326445,623.595943 C568.109273,610.670645 571.000687,596.362658 571.000687,580.671983 C571.000687,565.117396 568.109273,550.926893 562.326445,538.100472 C556.543618,525.274052 548.753809,515.024823 538.957019,507.352787 C529.160229,499.68075 518.172857,495.844732 505.994903,495.844732 Z M542.936965,154 C531.507377,154 520.928204,156.551675 511.199448,161.655025 C501.470691,166.758376 493.408749,173.596865 487.013622,182.170494 C475.788134,174.896093 463.661205,169.251575 450.632835,165.236939 C437.604465,161.222304 423.980804,159.214986 409.761852,159.214986 C395.542899,159.214986 381.90223,161.222304 368.839843,165.236939 C355.777457,169.251575 343.667536,174.896093 332.510081,182.170494 C326.114954,173.596865 318.053012,166.758376 308.324255,161.655025 C298.595499,156.551675 288.016326,154 276.586738,154 C263.728451,154 251.992713,157.140155 241.379524,163.420466 C230.766335,169.700776 222.313202,178.150542 216.020125,188.769764 C209.727048,199.388985 206.58051,211.114996 206.58051,223.947795 C206.58051,236.025724 209.318848,247.094679 214.795526,257.154658 C220.272204,267.214637 227.68783,275.49057 237.042403,281.982457 C246.396977,288.474344 256.857091,292.407113 268.422746,293.780765 C268.422746,294.992811 268.405738,296.167113 268.371721,297.303672 C268.337705,298.44023 268.320696,299.644302 268.320696,300.915887 C268.320696,320.491488 271.994493,338.839627 279.342085,355.960305 C283.253757,365.074918 287.960818,373.609914 293.463268,381.565294 L229.643786,410.465681 C217.329765,416.058102 207.515967,424.231437 200.202391,434.985684 C192.888815,445.739932 188.60272,457.605221 187.344104,470.581553 C186.085489,483.557884 188.279562,496.159438 193.926322,508.386215 C198.076352,517.308572 203.587046,524.906185 210.458406,531.179053 C217.329765,537.451921 225.119574,542.235249 233.827832,545.529037 C239.542626,524.973167 249.611549,508.176765 264.034601,495.139831 C278.457653,482.102898 295.125802,475.584431 314.03905,475.584431 C330.026866,475.584431 344.43291,480.296524 357.25718,489.720711 C370.08145,499.144898 380.28644,511.792701 387.872149,527.664121 C395.457858,543.53554 399.250712,561.204828 399.250712,580.671983 C399.250712,593.566448 397.515864,605.76505 394.046168,617.267789 C390.576471,628.770528 385.848159,639.094712 379.861232,648.240341 C385.916193,648.982453 392.447386,649.470461 399.454812,649.704365 C406.462238,649.938268 413.452656,649.938268 420.426066,649.704365 C427.399475,649.470461 433.947677,648.982453 440.070671,648.240341 C434.083743,639.094712 429.355431,628.770528 425.885735,617.267789 C422.416039,605.76505 420.68119,593.566448 420.68119,580.671983 C420.68119,561.204828 424.474045,543.53554 432.059754,527.664121 C439.645463,511.792701 449.86746,499.144898 462.725747,489.720711 C475.584034,480.296524 490.007086,475.584431 505.994903,475.584431 C524.90815,475.584431 541.5763,482.102898 555.999352,495.139831 C570.422404,508.176765 580.45731,524.973167 586.104071,545.529037 C594.744296,542.235249 602.517096,537.451921 609.422472,531.179053 C616.327848,524.906185 621.889568,517.308572 626.10763,508.386215 C631.754391,496.159438 633.931455,483.557884 632.638823,470.581553 C631.346191,457.605221 627.060096,445.739932 619.780537,434.985684 C612.500977,424.231437 602.704187,416.058102 590.390167,410.465681 L526.240495,381.415294 C531.699492,373.502654 536.363541,365.017658 540.232643,355.960305 C547.546219,338.839627 551.203007,320.491488 551.203007,300.915887 C551.203007,299.644302 551.185998,298.44023 551.151982,297.303672 C551.117965,296.167113 551.100957,294.992811 551.100957,293.780765 C562.666612,292.407113 573.126726,288.474344 582.4813,281.982457 C591.835874,275.49057 599.251499,267.214637 604.728177,257.154658 C610.204855,247.094679 612.943194,236.025724 612.943194,223.947795 C612.943194,211.114996 609.796655,199.388985 603.503578,188.769764 C597.210501,178.150542 588.757368,169.700776 578.144179,163.420466 C567.53099,157.140155 555.795252,154 542.936965,154 Z M410.272101,294.708937 C422.041856,294.708937 432.791111,297.607746 442.519868,303.405365 C452.248625,309.202984 460.021425,316.977087 465.838269,326.727676 C471.655113,336.478265 474.563535,347.3181 474.563535,359.247181 C474.563535,371.114597 471.655113,381.923599 465.838269,391.674188 C460.021425,401.424777 452.231616,409.214297 442.468843,415.042748 C432.70607,420.871199 421.973822,423.785425 410.272101,423.785425 C398.298247,423.785425 387.446941,420.886616 377.718184,415.088997 C367.989428,409.291379 360.250644,401.501859 354.501833,391.720437 C348.753022,381.939016 345.878617,371.114597 345.878617,359.247181 C345.878617,347.454189 348.770031,336.682399 354.552858,326.93181 C360.335685,317.181221 368.108486,309.373095 377.871259,303.507432 C387.634033,297.641769 398.434313,294.708937 410.272101,294.708937 Z M409.761852,323.166494 C400.373261,323.166494 392.549436,325.483203 386.290376,330.11662 C380.031315,334.750036 376.901785,339.214405 376.901785,343.509725 C376.901785,345.278886 378.7727,348.053301 382.514529,351.83297 C386.256359,355.612639 390.695529,359.120129 395.832041,362.35544 C400.968552,365.590752 405.611822,367.208408 409.761852,367.208408 C413.979914,367.208408 418.606176,365.590752 423.640637,362.35544 C428.675099,359.120129 432.995211,355.612639 436.600974,351.83297 C440.206737,348.053301 442.009619,345.278886 442.009619,343.509725 C442.009619,339.214405 438.982138,334.750036 432.927178,330.11662 C426.872217,325.483203 419.150442,323.166494 409.761852,323.166494 Z M354.552858,254.414797 C359.655353,254.414797 364.043498,256.262103 367.717295,259.956716 C371.391091,263.651329 373.227989,268.022668 373.227989,273.070732 C373.227989,278.26977 371.391091,282.697989 367.717295,286.355391 C364.043498,290.012792 359.655353,291.841492 354.552858,291.841492 C349.722496,291.841492 345.470417,290.012792 341.796621,286.355391 C338.122825,282.697989 336.285927,278.26977 336.285927,273.070732 C336.285927,268.022668 338.122825,263.651329 341.796621,259.956716 C345.470417,256.262103 349.722496,254.414797 354.552858,254.414797 Z M465.174945,254.414797 C470.005307,254.414797 474.257386,256.262103 477.931182,259.956716 C481.604978,263.651329 483.441876,268.022668 483.441876,273.070732 C483.441876,278.26977 481.604978,282.697989 477.931182,286.355391 C474.257386,290.012792 470.005307,291.841492 465.174945,291.841492 C460.07245,291.841492 455.701313,290.012792 452.061533,286.355391 C448.421754,282.697989 446.601864,278.26977 446.601864,273.070732 C446.601864,268.022668 448.421754,263.651329 452.061533,259.956716 C455.701313,256.262103 460.07245,254.414797 465.174945,254.414797 Z M276.586738,185.998007 C283.117931,185.998007 289.121867,187.503495 294.598544,190.514472 C300.075222,193.525448 304.514393,197.565601 307.916056,202.634929 C300.09223,210.815174 293.254887,219.912959 287.404027,229.928284 C281.553166,239.943609 277.028954,250.530934 273.831391,261.690261 C272.742858,261.690261 271.51826,261.516959 270.157594,261.170357 C261.10917,259.660616 253.574486,255.42005 247.553543,248.448661 C241.532599,241.477272 238.522127,233.310317 238.522127,223.947795 C238.522127,213.54334 242.263956,204.617261 249.747615,197.169559 C257.231274,189.721857 266.177649,185.998007 276.586738,185.998007 Z M542.936965,185.998007 C553.346055,185.998007 562.292429,189.721857 569.776088,197.169559 C577.259747,204.617261 581.001576,213.54334 581.001576,223.947795 C581.001576,233.174227 577.991104,241.341183 571.970161,248.448661 C565.949217,255.55614 558.414533,259.796705 549.366109,261.170357 C547.665277,261.516959 546.440678,261.690261 545.692312,261.690261 C542.494749,250.530934 537.970537,239.943609 532.119676,229.928284 C526.268816,219.912959 519.431473,210.815174 511.607647,202.634929 C514.941277,197.565601 519.363439,193.525448 524.874134,190.514472 C530.384828,187.503495 536.405772,185.998007 542.936965,185.998007 Z" id="01"></path>
            </g>
        </g>
    </g>
</svg>